<?xml version="1.0" standalone="no"?>
<!DOCTYPE svg PUBLIC "-//W3C//DTD SVG 20010904//EN"
 "http://www.w3.org/TR/2001/REC-SVG-20010904/DTD/svg10.dtd">
<svg version="1.0" xmlns="http://www.w3.org/2000/svg"
 width="800.000000pt" height="300.000000pt" viewBox="0 0 800.000000 300.000000"
 preserveAspectRatio="xMidYMid meet">

<g transform="translate(0.000000,300.000000) scale(0.100000,-0.100000)"
fill="#000000" stroke="none">
<path d="M2760 2574 c-166 -24 -284 -53 -370 -90 -48 -21 -113 -56 -127 -68
-6 -6 -25 -22 -43 -35 -35 -27 -108 -121 -130 -166 -8 -16 -16 -61 -20 -100
l-5 -70 -48 -8 c-80 -13 -146 -67 -147 -119 -1 -77 76 -170 156 -188 85 -19
152 5 181 66 14 29 15 41 5 79 -7 25 -12 56 -12 70 0 13 -13 50 -30 80 -17 31
-30 71 -30 89 0 58 36 125 103 190 93 90 221 148 387 176 36 5 83 15 105 20
52 12 417 12 475 -1 25 -5 90 -16 145 -24 55 -8 136 -24 180 -35 44 -12 96
-25 115 -29 36 -9 84 -28 158 -63 64 -30 158 -122 197 -193 31 -55 44 -95 30
-95 -3 0 -55 24 -117 54 -193 91 -341 131 -574 152 -71 6 -72 6 -100 -26 -32
-35 -38 -35 -159 -10 -125 25 -364 1 -390 -40 -12 -20 15 -49 53 -55 149 -22
356 -97 393 -141 13 -15 4 -80 -12 -89 -5 -4 -31 6 -57 22 -71 43 -150 70
-220 78 -35 3 -69 8 -76 11 -7 3 -23 -3 -36 -14 -35 -28 -19 -52 68 -101 42
-25 95 -58 117 -75 58 -45 135 -122 136 -138 2 -17 1 -18 -26 -113 -13 -44
-26 -106 -30 -138 -12 -99 -51 -84 -61 23 -5 59 -26 143 -44 180 -4 8 -19 16
-33 18 -19 2 -27 -2 -33 -20 -7 -24 -8 -29 -22 -311 -5 -103 -12 -190 -15
-194 -4 -3 -17 -1 -30 5 -12 6 -46 21 -75 33 -29 12 -59 31 -67 43 -40 56 9
294 89 430 23 39 24 45 10 64 -8 12 -23 22 -33 22 -18 0 -146 -105 -191 -156
-57 -66 -113 -141 -131 -176 -24 -46 -56 -50 -106 -12 -44 34 -45 78 -2 148
36 58 157 196 173 196 6 1 24 11 39 24 20 16 28 30 25 47 -2 20 -9 24 -44 27
-27 2 -45 -2 -54 -13 -7 -8 -18 -15 -24 -15 -6 0 -44 -22 -84 -50 -40 -27 -76
-50 -79 -50 -17 0 -174 -115 -235 -173 -51 -47 -68 -69 -68 -89 0 -15 -8 -33
-19 -40 -27 -19 -34 -53 -17 -86 8 -16 19 -57 25 -93 36 -240 60 -322 116
-410 82 -127 161 -188 315 -242 82 -30 193 -46 426 -62 328 -23 670 -13 859
26 27 5 133 14 235 19 325 17 536 63 687 151 91 52 144 59 368 52 167 -6 190
-4 247 14 35 11 92 28 128 38 36 9 101 30 145 47 44 16 97 34 119 39 120 30
215 111 281 242 20 39 41 76 46 82 5 5 9 20 9 34 0 13 6 47 14 75 8 28 19 78
25 111 6 33 16 87 23 120 9 39 11 91 8 148 -6 78 -9 89 -30 105 -38 27 -57 30
-177 31 -62 1 -123 6 -136 12 -20 9 -31 7 -63 -10 -143 -78 -294 -201 -437
-354 -147 -157 -153 -164 -224 -249 -36 -43 -67 -78 -69 -78 -2 0 -18 28 -35
62 -16 35 -38 75 -47 89 -15 23 -56 90 -95 154 -66 109 -248 304 -407 438
-126 105 -131 111 -139 171 -12 91 -123 256 -202 302 -28 16 -146 72 -174 84
-56 22 -279 73 -395 91 -41 6 -100 14 -130 19 -54 8 -380 11 -430 4z m399
-417 c41 -21 49 -43 24 -69 -20 -19 -24 -20 -40 -7 -23 19 -78 45 -126 59 -20
6 -35 16 -32 21 9 13 146 11 174 -4z m-1055 -217 c30 -36 42 -90 27 -119 -17
-31 -96 -29 -134 4 -31 27 -50 70 -42 94 7 24 55 50 92 51 23 0 38 -8 57 -30z
m954 -96 c35 -29 41 -44 17 -44 -16 0 -65 46 -65 60 0 16 15 11 48 -16z m2812
-94 c5 -8 10 -30 10 -47 0 -38 -24 -58 -85 -69 -62 -11 -292 -121 -549 -263
-32 -17 -62 -31 -67 -29 -32 11 205 235 334 316 33 21 80 54 105 75 l45 39 99
-4 c74 -2 101 -7 108 -18z m-3670 -168 c0 -4 -6 -16 -14 -27 -7 -11 -19 -36
-25 -57 -14 -43 -30 -51 -71 -37 -38 14 -38 32 0 66 56 49 110 77 110 55z
m1509 -12 c43 -21 72 -53 91 -100 11 -26 10 -36 -6 -71 -24 -54 -79 -99 -121
-99 -74 0 -163 91 -163 166 0 46 25 76 87 105 50 23 66 23 112 -1z m2151 -22
c0 -32 -21 -148 -36 -199 -19 -67 -32 -75 -137 -89 -98 -14 -215 -38 -257 -55
-19 -7 -62 -21 -95 -30 -89 -26 -145 -45 -190 -65 -22 -10 -67 -28 -100 -40
-33 -13 -72 -29 -87 -36 -31 -16 -58 -18 -58 -4 0 26 212 184 338 251 31 17
71 39 87 48 97 57 250 136 385 199 68 32 150 43 150 20z m-3290 -52 c0 -13 -7
-43 -15 -66 -8 -23 -15 -69 -15 -102 0 -72 -14 -81 -77 -47 -39 21 -44 27 -39
52 6 29 28 63 89 140 43 53 57 58 57 23z m359 -393 c2 -25 -39 -14 -49 13 -9
24 -5 89 7 124 5 13 41 -104 42 -137z m2833 81 c10 -9 -37 -83 -83 -131 -44
-46 -113 -84 -179 -98 -19 -4 -39 -11 -45 -15 -5 -4 -26 -13 -45 -18 -19 -6
-48 -15 -65 -21 -16 -6 -64 -20 -105 -31 -41 -11 -97 -28 -123 -37 -40 -13
-74 -15 -190 -9 -78 4 -150 7 -159 7 -10 0 -18 5 -18 11 0 14 30 48 41 48 4 0
27 13 51 28 24 16 63 38 88 49 90 40 121 53 133 53 7 1 30 9 52 20 22 11 47
19 56 20 8 0 19 4 25 8 5 5 43 19 84 31 41 13 98 30 125 38 132 41 337 68 357
47z"/>
<path d="M3593 1514 c-21 -21 -24 -32 -20 -61 8 -47 23 -63 61 -63 39 0 51 8
70 45 14 26 13 31 -2 58 -15 26 -47 47 -73 47 -5 0 -21 -12 -36 -26z"/>
</g>
</svg>
